HIERARCHY
ROOT Hips
{
	OFFSET 0.000000 103.266502 0.000000
	CHANNELS 6 Xposition Yposition Zposition Xrotation Yrotation Zrotation 
	JOINT Spine
	{
		OFFSET -0.002400 12.777504 0.315300
		CHANNELS 3 Xrotation Yrotation Zrotation
		JOINT Spine1
		{
			OFFSET -0.002067 5.816869 0.032633
			CHANNELS 3 Xrotation Yrotation Zrotation
			JOINT Spine1_split
			{
				OFFSET -0.002067 5.816869 0.032633
				CHANNELS 3 Xrotation Yrotation Zrotation
				JOINT Spine2
				{
					OFFSET -0.002067 5.816869 0.032633
					CHANNELS 3 Xrotation Yrotation Zrotation
					JOINT Neck
					{
						OFFSET -0.003700 21.199493 -0.826900
						CHANNELS 3 Xrotation Yrotation Zrotation
						JOINT Head
						{
							OFFSET 0.000000 20.442200 4.834800
							CHANNELS 3 Xrotation Yrotation Zrotation
							JOINT HeadTop_End
							{
								OFFSET 0.000000 34.668396 4.968400
								CHANNELS 3 Xrotation Yrotation Zrotation
								End Site
								{
									OFFSET 0.000000 0.000000 0.000000
								}
							}
						}
					}
					JOINT LeftShoulder
					{
						OFFSET 3.288150 8.794197 -1.372250
						CHANNELS 3 Xrotation Yrotation Zrotation
						JOINT LeftShoulder_split
						{
							OFFSET 3.288150 8.794197 -1.372250
							CHANNELS 3 Xrotation Yrotation Zrotation
							JOINT LeftArm
							{
								OFFSET 11.953299 -2.279007 -0.146200
								CHANNELS 3 Xrotation Yrotation Zrotation
								JOINT LeftForeArm
								{
									OFFSET 18.448900 0.000000 0.000000
									CHANNELS 3 Xrotation Yrotation Zrotation
									JOINT LeftHand
									{
										OFFSET 29.527798 0.000000 0.000000
										CHANNELS 3 Xrotation Yrotation Zrotation
										JOINT LeftHandThumb1
										{
											OFFSET 10.739754 -2.369614 9.225399
											CHANNELS 3 Xrotation Yrotation Zrotation
											JOINT LeftHandThumb2
											{
												OFFSET 4.926170 -2.844131 2.844125
												CHANNELS 3 Xrotation Yrotation Zrotation
												JOINT LeftHandThumb3
												{
													OFFSET 4.614891 -2.664413 2.664409
													CHANNELS 3 Xrotation Yrotation Zrotation
													JOINT LeftHandThumb4
													{
														OFFSET 4.432465 -2.559082 2.559083
														CHANNELS 3 Xrotation Yrotation Zrotation
														End Site
														{
															OFFSET 0.000000 0.000000 0.000000
														}
													}
												}
											}
										}
										JOINT LeftHandIndex1
										{
											OFFSET 26.467674 0.187653 6.405298
											CHANNELS 3 Xrotation Yrotation Zrotation
											JOINT LeftHandIndex2
											{
												OFFSET 8.792900 0.000000 0.000000
												CHANNELS 3 Xrotation Yrotation Zrotation
												JOINT LeftHandIndex3
												{
													OFFSET 10.075203 0.000000 0.000000
													CHANNELS 3 Xrotation Yrotation Zrotation
													End Site
													{
														OFFSET 0.000000 0.000000 0.000000
													}
												}
											}
										}
										JOINT LeftHandMiddle1
										{
											OFFSET 25.764404 0.000000 0.000000
											CHANNELS 3 Xrotation Yrotation Zrotation
											JOINT LeftHandMiddle2
											{
												OFFSET 9.393974 0.000000 0.000000
												CHANNELS 3 Xrotation Yrotation Zrotation
												JOINT LeftHandMiddle3
												{
													OFFSET 10.771950 0.000000 0.000000
													CHANNELS 3 Xrotation Yrotation Zrotation
													End Site
													{
														OFFSET 0.000000 0.000000 0.000000
													}
												}
											}
										}
										JOINT LeftHandRing1
										{
											OFFSET 24.660927 0.144547 -6.225808
											CHANNELS 3 Xrotation Yrotation Zrotation
											JOINT LeftHandRing2
											{
												OFFSET 9.393799 0.000000 0.000000
												CHANNELS 3 Xrotation Yrotation Zrotation
												JOINT LeftHandRing3
												{
													OFFSET 9.928497 0.000000 0.000000
													CHANNELS 3 Xrotation Yrotation Zrotation
													End Site
													{
														OFFSET 0.000000 0.000000 0.000000
													}
												}
											}
										}
										JOINT LeftHandPinky1
										{
											OFFSET 23.655350 0.125290 -12.815412
											CHANNELS 3 Xrotation Yrotation Zrotation
											JOINT LeftHandPinky2
											{
												OFFSET 8.425102 0.000000 0.000000
												CHANNELS 3 Xrotation Yrotation Zrotation
												JOINT LeftHandPinky3
												{
													OFFSET 8.147003 0.000000 0.000000
													CHANNELS 3 Xrotation Yrotation Zrotation
													End Site
													{
														OFFSET 0.000000 0.000000 0.000000
													}
												}
											}
										}
									}
								}
							}
						}
					}
					JOINT RightShoulder
					{
						OFFSET -3.249400 8.794197 -1.372250
						CHANNELS 3 Xrotation Yrotation Zrotation
						JOINT RightShoulder_split
						{
							OFFSET -3.249400 8.794197 -1.372250
							CHANNELS 3 Xrotation Yrotation Zrotation
							JOINT RightArm
							{
								OFFSET -11.953299 -2.279007 -0.146200
								CHANNELS 3 Xrotation Yrotation Zrotation
								JOINT RightForeArm
								{
									OFFSET -18.448900 0.000000 0.000000
									CHANNELS 3 Xrotation Yrotation Zrotation
									JOINT RightHand
									{
										OFFSET -29.527802 0.000000 0.000000
										CHANNELS 3 Xrotation Yrotation Zrotation
										JOINT RightHandThumb1
										{
											OFFSET -10.739754 -2.369614 9.225399
											CHANNELS 3 Xrotation Yrotation Zrotation
											JOINT RightHandThumb2
											{
												OFFSET -4.926170 -2.844131 2.844125
												CHANNELS 3 Xrotation Yrotation Zrotation
												JOINT RightHandThumb3
												{
													OFFSET -4.614891 -2.664413 2.664409
													CHANNELS 3 Xrotation Yrotation Zrotation
													JOINT RightHandThumb4
													{
														OFFSET -4.432465 -2.559082 2.559083
														CHANNELS 3 Xrotation Yrotation Zrotation
														End Site
														{
															OFFSET 0.000000 0.000000 0.000000
														}
													}
												}
											}
										}
										JOINT RightHandIndex1
										{
											OFFSET -26.467674 0.187653 6.405298
											CHANNELS 3 Xrotation Yrotation Zrotation
											JOINT RightHandIndex2
											{
												OFFSET -8.792900 0.000000 0.000000
												CHANNELS 3 Xrotation Yrotation Zrotation
												JOINT RightHandIndex3
												{
													OFFSET -10.075203 0.000000 0.000000
													CHANNELS 3 Xrotation Yrotation Zrotation
													End Site
													{
														OFFSET 0.000000 0.000000 0.000000
													}
												}
											}
										}
										JOINT RightHandMiddle1
										{
											OFFSET -25.764404 0.000000 0.000000
											CHANNELS 3 Xrotation Yrotation Zrotation
											JOINT RightHandMiddle2
											{
												OFFSET -9.393974 0.000000 0.000000
												CHANNELS 3 Xrotation Yrotation Zrotation
												JOINT RightHandMiddle3
												{
													OFFSET -10.771950 0.000000 0.000000
													CHANNELS 3 Xrotation Yrotation Zrotation
													End Site
													{
														OFFSET 0.000000 0.000000 0.000000
													}
												}
											}
										}
										JOINT RightHandRing1
										{
											OFFSET -24.660927 0.144547 -6.225808
											CHANNELS 3 Xrotation Yrotation Zrotation
											JOINT RightHandRing2
											{
												OFFSET -9.393799 0.000000 0.000000
												CHANNELS 3 Xrotation Yrotation Zrotation
												JOINT RightHandRing3
												{
													OFFSET -9.928497 0.000000 0.000000
													CHANNELS 3 Xrotation Yrotation Zrotation
													End Site
													{
														OFFSET 0.000000 0.000000 0.000000
													}
												}
											}
										}
										JOINT RightHandPinky1
										{
											OFFSET -23.655350 0.125290 -12.815412
											CHANNELS 3 Xrotation Yrotation Zrotation
											JOINT RightHandPinky2
											{
												OFFSET -8.425102 0.000000 0.000000
												CHANNELS 3 Xrotation Yrotation Zrotation
												JOINT RightHandPinky3
												{
													OFFSET -8.147003 0.000000 0.000000
													CHANNELS 3 Xrotation Yrotation Zrotation
													End Site
													{
														OFFSET 0.000000 0.000000 0.000000
													}
												}
											}
										}
									}
								}
							}
						}
					}
				}
			}
		}
	}
	JOINT LeftUpLeg
	{
		OFFSET 11.394100 -6.187798 -0.413800
		CHANNELS 3 Xrotation Yrotation Zrotation
		JOINT LeftLeg
		{
			OFFSET 0.430247 -32.302673 3.732800
			CHANNELS 3 Xrotation Yrotation Zrotation
			JOINT LeftFoot
			{
				OFFSET -0.430247 -48.264931 -6.423300
				CHANNELS 3 Xrotation Yrotation Zrotation
				JOINT LeftToeBase
				{
					OFFSET 4.230900 -16.068199 23.438400
					CHANNELS 3 Xrotation Yrotation Zrotation
					JOINT LeftToe_End
					{
						OFFSET 4.510700 0.695400 19.974600
						CHANNELS 3 Xrotation Yrotation Zrotation
						End Site
						{
							OFFSET 0.000000 0.000000 0.000000
						}
					}
				}
			}
		}
	}
	JOINT RightUpLeg
	{
		OFFSET -11.333700 -6.187798 -0.413800
		CHANNELS 3 Xrotation Yrotation Zrotation
		JOINT RightLeg
		{
			OFFSET -0.430392 -32.302628 3.733000
			CHANNELS 3 Xrotation Yrotation Zrotation
			JOINT RightFoot
			{
				OFFSET 0.430392 -48.264973 -6.423500
				CHANNELS 3 Xrotation Yrotation Zrotation
				JOINT RightToeBase
				{
					OFFSET -4.230900 -16.068199 23.438400
					CHANNELS 3 Xrotation Yrotation Zrotation
					JOINT RightToe_End
					{
						OFFSET -4.510700 0.695400 19.974600
						CHANNELS 3 Xrotation Yrotation Zrotation
						End Site
						{
							OFFSET 0.000000 0.000000 0.000000
						}
					}
				}
			}
		}
	}
}
MOTION
Frames: 4
Frame Time: 0.016667
33.605133 93.739685 219.960541 148.629656 28.921251 199.480442 15.628806 0.279383 -3.514954 11.179199 1.496555 -1.690590 0.000000 0.000000 0.000000 11.176920 1.458481 -1.755965 -5.323160 6.287504 -1.210502 -58.746730 28.769696 8.224001 0.000000 0.000000 0.000001 0.679280 -4.570058 -5.408215 0.000000 0.000000 0.000000 -7.347364 -16.947830 -52.221246 0.000006 -39.502054 0.000009 -25.552445 -15.892581 19.611217 -1.765980 13.580031 7.641519 4.742565 17.876567 1.476423 -0.125154 6.527500 3.024035 -0.000002 -0.000000 -0.000002 0.103564 1.192119 -9.929405 0.103565 1.192128 -9.929393 -0.000000 -0.000000 -0.000000 0.103235 1.190224 -9.913401 0.103891 1.194019 -9.945391 -0.000003 -0.000000 0.000001 0.103564 1.192119 -9.929405 0.103567 1.192126 -9.929397 0.000000 -0.000000 0.000001 0.787119 5.188585 -9.457042 0.096223 -2.863093 -10.432486 0.000002 -0.000000 -0.000001 1.594496 3.261026 6.782096 0.000000 0.000000 0.000000 -3.991008 33.404976 42.645290 -0.000005 33.641725 0.000014 -1.508940 5.491321 -1.096622 -2.082028 -13.461645 -8.150999 5.520663 -18.558742 -0.893692 -0.816668 -4.811728 -2.622802 0.000000 0.000001 -0.000001 0.104545 -1.203689 9.928027 0.104550 -1.203679 9.928034 0.000000 -0.000001 0.000000 0.104544 -1.203686 9.928031 0.104552 -1.203682 9.928033 0.000000 -0.000001 0.000000 0.104545 -1.203689 9.928030 0.104550 -1.203679 9.928033 0.000002 0.000001 0.000001 0.104545 -1.203690 9.928028 0.104552 -1.203679 9.928031 0.000000 -0.000001 0.000000 -70.294989 26.866599 22.525624 26.619588 -0.950509 5.257498 12.996761 -0.509668 -9.217271 -0.237595 0.000002 0.000001 0.000000 -0.000000 0.000000 -69.860691 -19.262981 -15.144008 46.115740 8.980992 -9.763872 -8.491735 7.249150 4.924232 0.000003 -0.000003 -0.000005 -0.000000 -0.000003 -0.000000 
33.818764 93.778076 220.163422 149.741024 29.138584 199.382156 15.678387 0.219488 -3.412244 11.244318 1.411618 -1.634696 0.000000 0.000000 0.000000 11.244368 1.359445 -1.691648 -4.891590 6.207627 -1.571772 -58.051581 28.398362 7.817766 -0.000000 0.000001 -0.000001 0.699086 -4.359875 -5.527548 0.000000 0.000000 0.000000 -8.886029 -19.670643 -51.048113 0.000012 -37.582484 0.000013 -24.098939 -16.275236 18.961737 -1.765985 13.580031 7.641517 4.742559 17.876569 1.476418 -0.125158 6.527499 3.024034 0.000001 -0.000000 0.000000 0.103559 1.192120 -9.929405 0.103563 1.192128 -9.929394 0.000001 -0.000001 -0.000000 0.103234 1.190222 -9.913401 0.103895 1.194020 -9.945393 0.000001 0.000001 -0.000000 0.103561 1.192119 -9.929405 0.103563 1.192126 -9.929394 0.000005 -0.000001 0.000001 0.787112 5.188584 -9.457044 0.096227 -2.863095 -10.432486 0.000002 -0.000000 0.000000 1.600090 3.351352 6.666492 0.000000 0.000000 0.000000 -3.315606 33.242520 44.633490 0.000000 30.632661 0.000013 -3.900150 2.699656 0.206861 -2.082028 -13.461645 -8.150999 5.520667 -18.558742 -0.893693 -0.816667 -4.811736 -2.622804 0.000001 0.000002 -0.000000 0.104545 -1.203689 9.928025 0.104552 -1.203679 9.928033 0.000000 0.000001 -0.000001 0.104538 -1.203684 9.928032 0.104551 -1.203679 9.928030 0.000000 -0.000003 0.000000 0.104545 -1.203688 9.928028 0.104552 -1.203678 9.928034 0.000001 0.000001 -0.000001 0.104543 -1.203689 9.928026 0.104552 -1.203680 9.928033 0.000001 0.000001 0.000001 -69.140714 28.307415 22.799646 25.891012 -1.979034 4.981710 12.818728 -0.453777 -8.978782 0.000002 0.000000 -0.000000 0.000000 -0.000000 -0.000000 -68.953779 -18.465065 -14.988806 46.536483 8.984664 -9.760403 -8.740347 6.669102 4.782571 -0.000002 -0.000005 -0.000002 -0.000000 0.000000 0.000000 
34.072876 93.765190 220.255539 151.244895 29.290003 199.015689 15.711056 0.169466 -3.229388 11.298309 1.289820 -1.543753 0.000000 0.000000 0.000000 11.300031 1.227189 -1.591297 -4.701379 6.175772 -2.096393 -56.789628 27.923741 7.735830 0.000000 0.000001 -0.000001 0.713078 -3.812082 -5.705418 0.000000 0.000000 0.000000 -10.233135 -22.867607 -49.821418 -0.000010 -35.663112 0.000001 -23.015390 -16.767875 16.827088 -1.765981 13.580031 7.641522 4.742559 17.876567 1.476427 -0.125160 6.527497 3.024033 0.000001 -0.000001 -0.000001 0.103562 1.192120 -9.929409 0.103563 1.192126 -9.929393 -0.000001 -0.000000 0.000001 0.103238 1.190221 -9.913399 0.103897 1.194020 -9.945394 -0.000003 0.000000 -0.000000 0.103563 1.192120 -9.929407 0.103569 1.192125 -9.929393 -0.000001 0.000000 0.000000 0.787114 5.188586 -9.457041 0.096229 -2.863094 -10.432489 -0.000004 0.000001 -0.000000 1.592956 3.421395 6.456774 0.000000 0.000000 0.000000 -2.599040 33.653261 46.550471 -0.000011 26.450850 -0.000011 -8.655976 3.202493 0.851967 -2.082029 -13.461645 -8.150998 5.520666 -18.558744 -0.893693 -0.816667 -4.811725 -2.622803 -0.000001 0.000001 -0.000001 0.104545 -1.203689 9.928027 0.104550 -1.203678 9.928033 0.000000 0.000002 -0.000001 0.104543 -1.203687 9.928032 0.104554 -1.203681 9.928033 -0.000001 -0.000000 0.000001 0.104545 -1.203688 9.928026 0.104549 -1.203678 9.928033 -0.000001 0.000000 -0.000001 0.104546 -1.203690 9.928026 0.104550 -1.203681 9.928033 -0.000000 -0.000001 -0.000000 -68.254907 29.941442 23.136322 25.737032 -3.546254 5.091116 12.943185 -0.440915 -8.902557 -0.000022 -0.000004 0.000001 0.000000 0.000000 -0.000000 -67.820124 -17.765249 -15.036332 47.219577 9.006439 -9.765360 -9.220608 6.071528 4.663242 0.000002 -0.000003 -0.000005 0.000000 -0.000001 -0.000000 
34.364243 93.726753 220.292114 152.944601 29.292236 198.345333 15.655227 0.113708 -2.935168 11.282001 1.136263 -1.387480 0.000000 0.000000 0.000000 11.284218 1.073095 -1.426240 -4.810501 6.231627 -2.702026 -54.792467 27.480829 8.120777 -0.000000 -0.000000 0.000000 0.705007 -3.075853 -5.855095 0.000000 0.000000 0.000000 -11.428530 -25.964735 -48.874870 0.000022 -34.245571 0.000022 -22.775602 -16.766894 13.784977 -1.765983 13.580031 7.641518 4.742561 17.876569 1.476425 -0.125159 6.527497 3.024028 -0.000003 -0.000002 0.000000 0.103559 1.192120 -9.929408 0.103569 1.192124 -9.929393 0.000002 -0.000000 0.000000 0.103234 1.190221 -9.913397 0.103896 1.194018 -9.945392 -0.000005 0.000001 0.000000 0.103559 1.192120 -9.929409 0.103568 1.192123 -9.929392 0.000002 0.000000 0.000000 0.787115 5.188583 -9.457044 0.096227 -2.863094 -10.432486 0.000003 -0.000001 0.000001 1.583468 3.469112 6.266585 0.000000 0.000000 0.000000 -1.950597 34.322046 48.394397 -0.000003 21.196232 0.000010 -11.889283 6.876523 2.098363 -2.082029 -13.461647 -8.151000 5.520667 -18.558742 -0.893694 -0.816666 -4.811731 -2.622800 -0.000001 -0.000002 0.000001 0.104544 -1.203689 9.928028 0.104551 -1.203679 9.928033 0.000000 0.000001 -0.000000 0.104541 -1.203684 9.928033 0.104554 -1.203681 9.928033 0.000000 -0.000001 0.000001 0.104544 -1.203690 9.928028 0.104551 -1.203677 9.928033 0.000000 -0.000001 -0.000001 0.104544 -1.203690 9.928027 0.104552 -1.203678 9.928032 -0.000001 0.000000 -0.000000 -67.394836 31.309065 23.304593 25.906979 -5.147835 5.577634 12.916649 -0.445916 -9.133918 -0.000017 -0.000001 0.000003 -0.000000 0.000000 0.000000 -66.508571 -17.312154 -15.143964 47.976413 9.058970 -9.771996 -9.836022 5.410477 4.532153 -0.000006 0.000002 -0.000001 -0.000000 -0.000002 -0.000000 
